<?xml version="1.0" standalone="no"?><svg xmlns="http://www.w3.org/2000/svg" viewBox="0 0 1440 320"><path fill="#a2d9ff" fill-opacity="1" d="M0,128L16,117.3C32,107,64,85,96,90.7C128,96,160,128,192,122.7C224,117,256,75,288,64C320,53,352,75,384,117.3C416,160,448,224,480,234.7C512,245,544,203,576,160C608,117,640,75,672,80C704,85,736,139,768,160C800,181,832,171,864,149.3C896,128,928,96,960,122.7C992,149,1024,235,1056,250.7C1088,267,1120,213,1152,186.7C1184,160,1216,160,1248,176C1280,192,1312,224,1344,234.7C1376,245,1408,235,1424,229.3L1440,224L1440,320L1424,320C1408,320,1376,320,1344,320C1312,320,1280,320,1248,320C1216,320,1184,320,1152,320C1120,320,1088,320,1056,320C1024,320,992,320,960,320C928,320,896,320,864,320C832,320,800,320,768,320C736,320,704,320,672,320C640,320,608,320,576,320C544,320,512,320,480,320C448,320,416,320,384,320C352,320,320,320,288,320C256,320,224,320,192,320C160,320,128,320,96,320C64,320,32,320,16,320L0,320Z"></path></svg>